<svg width="41" height="31" viewBox="0 0 41 31" fill="none" xmlns="http://www.w3.org/2000/svg">
<path d="M3.50671 7.55048H9.68625C10.0098 7.55048 10.2722 7.28821 10.2722 6.96454C10.2722 6.64087 10.0098 6.3786 9.68625 6.3786H3.50671C3.18312 6.3786 2.92078 6.64087 2.92078 6.96454C2.92078 7.28821 3.18304 7.55048 3.50671 7.55048Z" fill="#09A66D"/>
<path d="M9.47454 10.3713H7.03345C6.70985 10.3713 6.44751 10.6336 6.44751 10.9573C6.44751 11.2809 6.70985 11.5432 7.03345 11.5432H9.47454C9.79814 11.5432 10.0605 11.2809 10.0605 10.9573C10.0605 10.6336 9.79814 10.3713 9.47454 10.3713Z" fill="#09A66D"/>
<path d="M1.05566 14.4346H7.03316C7.35676 14.4346 7.6191 14.1723 7.6191 13.8486C7.6191 13.525 7.35676 13.2627 7.03316 13.2627H1.05566C0.73207 13.2627 0.469727 13.525 0.469727 13.8486C0.469727 14.1723 0.73207 14.4346 1.05566 14.4346Z" fill="#09A66D"/>
<path d="M10.2722 24.8223C10.2722 24.4986 10.0098 24.2363 9.68625 24.2363H3.50671C3.18312 24.2363 2.92078 24.4986 2.92078 24.8223C2.92078 25.1459 3.18312 25.4082 3.50671 25.4082H9.68625C10.0098 25.4082 10.2722 25.1459 10.2722 24.8223Z" fill="#09A66D"/>
<path d="M9.47454 20.2437H7.03345C6.70985 20.2437 6.44751 20.5059 6.44751 20.8296C6.44751 21.1533 6.70985 21.4155 7.03345 21.4155H9.47454C9.79814 21.4155 10.0605 21.1533 10.0605 20.8296C10.0605 20.5059 9.79814 20.2437 9.47454 20.2437Z" fill="#09A66D"/>
<path d="M7.6191 17.9382C7.6191 17.6145 7.35676 17.3522 7.03316 17.3522H1.05566C0.73207 17.3522 0.469727 17.6145 0.469727 17.9382C0.469727 18.2618 0.73207 18.5241 1.05566 18.5241H7.03316C7.35676 18.5241 7.6191 18.2618 7.6191 17.9382Z" fill="#09A66D"/>
<path d="M25.4329 8.8489C25.7565 8.8489 26.0188 8.58664 26.0188 8.26297V7.36859C26.0188 7.04492 25.7565 6.78265 25.4329 6.78265C25.1092 6.78265 24.8469 7.04492 24.8469 7.36859V8.26297C24.8469 8.58664 25.1092 8.8489 25.4329 8.8489Z" fill="#09A66D"/>
<path d="M31.8755 9.4511C31.6466 9.22235 31.2757 9.22235 31.0468 9.4511L30.4144 10.0835C30.1856 10.3124 30.1856 10.6834 30.4144 10.9122C30.6434 11.141 31.0143 11.1409 31.2431 10.9122L31.8755 10.2798C32.1043 10.0509 32.1043 9.68001 31.8755 9.4511Z" fill="#09A66D"/>
<path d="M33.0627 15.3075C32.7391 15.3075 32.4768 15.5698 32.4768 15.8934C32.4768 16.2171 32.7391 16.4794 33.0627 16.4794H33.957C34.2807 16.4794 34.543 16.2171 34.543 15.8934C34.543 15.5698 34.2807 15.3075 33.957 15.3075H33.0627Z" fill="#09A66D"/>
<path d="M31.2431 20.8746C31.0142 20.6458 30.6432 20.6458 30.4144 20.8746C30.1856 21.1035 30.1856 21.4744 30.4144 21.7032L31.0468 22.3357C31.2758 22.5645 31.6467 22.5644 31.8755 22.3357C32.1043 22.1068 32.1043 21.7358 31.8755 21.507L31.2431 20.8746Z" fill="#09A66D"/>
<path d="M24.8469 23.5239V24.4182C24.8469 24.7418 25.1092 25.0041 25.4329 25.0041C25.7565 25.0041 26.0188 24.7418 26.0188 24.4182V23.5239C26.0188 23.2002 25.7565 22.9379 25.4329 22.9379C25.1092 22.9379 24.8469 23.2003 24.8469 23.5239Z" fill="#09A66D"/>
<path d="M19.6231 20.8746L18.9907 21.507C18.7619 21.7359 18.7619 22.1068 18.9907 22.3357C19.2196 22.5645 19.5906 22.5644 19.8193 22.3357L20.4517 21.7032C20.6805 21.4743 20.6805 21.1034 20.4517 20.8746C20.223 20.6458 19.852 20.6458 19.6231 20.8746Z" fill="#09A66D"/>
<path d="M16.9078 15.3075C16.5842 15.3075 16.3219 15.5698 16.3219 15.8934C16.3219 16.2171 16.5842 16.4794 16.9078 16.4794H17.8022C18.1258 16.4794 18.3881 16.2171 18.3881 15.8934C18.3881 15.5698 18.1258 15.3075 17.8022 15.3075H16.9078Z" fill="#09A66D"/>
<path d="M20.4518 10.0835L19.8194 9.4511C19.5906 9.22235 19.2196 9.22235 18.9908 9.4511C18.762 9.68001 18.762 10.0509 18.9908 10.2798L19.6233 10.9122C19.8522 11.141 20.2231 11.1409 20.4518 10.9122C20.6807 10.6834 20.6807 10.3124 20.4518 10.0835Z" fill="#09A66D"/>
<path d="M28.5836 15.8935C28.5836 15.5698 28.3214 15.3075 27.9977 15.3075H26.0188V10.9572C26.0188 10.6335 25.7565 10.3713 25.4329 10.3713C25.1092 10.3713 24.8469 10.6335 24.8469 10.9572V15.8935C24.8469 16.2171 25.1092 16.4794 25.4329 16.4794H27.9977C28.3213 16.4794 28.5836 16.2171 28.5836 15.8935Z" fill="#09A66D"/>
<path d="M36.5432 15.7967C36.8662 15.7771 37.1122 15.4994 37.0926 15.1764C36.7198 9.02773 31.5983 4.21124 25.4328 4.21124C18.9912 4.21124 13.7506 9.45187 13.7506 15.8935C13.7506 22.3351 18.9912 27.5757 25.4328 27.5757C31.2038 27.5757 36.1281 23.3474 36.9848 17.6416C37.0328 17.3216 36.8123 17.0232 36.4923 16.9751C36.173 16.9273 35.8739 17.1475 35.8258 17.4676C35.0563 22.5937 30.6301 26.4039 25.4328 26.4039C19.6374 26.4039 14.9225 21.689 14.9225 15.8936C14.9225 10.0982 19.6374 5.3832 25.4328 5.3832C30.9798 5.3832 35.5875 9.71609 35.9228 15.2475C35.9423 15.5703 36.2198 15.8155 36.5432 15.7967Z" fill="#09A66D"/>
<path d="M25.4332 0.856628C23.3722 0.856628 21.3529 1.28421 19.4943 2.08382H9.15613C8.83253 2.08382 8.57019 2.34608 8.57019 2.66975C8.57019 2.99343 8.83253 3.25569 9.15613 3.25569H17.29C16.1902 3.9635 15.1778 4.81725 14.2851 5.80288C14.0679 6.04264 14.0862 6.41319 14.326 6.63046C14.566 6.84772 14.9364 6.82936 15.1537 6.58952C17.7789 3.69093 21.5257 2.0285 25.4332 2.0285C33.0784 2.0285 39.2982 8.24827 39.2982 15.8934C39.2982 23.5385 33.0785 29.7584 25.4332 29.7584C17.7881 29.7584 11.5683 23.5386 11.5683 15.8934C11.5683 13.2162 12.3331 10.6178 13.7798 8.37889C13.9554 8.1071 13.8775 7.74444 13.6057 7.56882C13.3339 7.39327 12.9712 7.47108 12.7955 7.74296C11.226 10.1717 10.3964 12.9901 10.3964 15.8934C10.3964 21.1876 13.1469 25.8511 17.2937 28.5312H9.15621C8.83261 28.5312 8.57027 28.7934 8.57027 29.1171C8.57027 29.4408 8.83261 29.703 9.15621 29.703H19.4863C21.3113 30.492 23.322 30.9302 25.4333 30.9302C33.7246 30.9302 40.4701 24.1848 40.4701 15.8934C40.4701 7.6021 33.7246 0.856628 25.4332 0.856628Z" fill="#09A66D"/>
</svg>
